<?xml version="1.0" encoding="iso-8859-1"?>
<!-- Uploaded to: SVG Repo, www.svgrepo.com, Generator: SVG Repo Mixer Tools -->
<svg version="1.1" id="Layer_1" xmlns="http://www.w3.org/2000/svg" xmlns:xlink="http://www.w3.org/1999/xlink" 
	 viewBox="0 0 511.997 511.997" xml:space="preserve">
<path style="fill:#AF6518;" d="M133.312,468.862h340.902V157.125c0-18.368-14.89-33.258-33.258-33.258H71.045
	c-18.368,0-33.258,14.89-33.258,33.258v311.737h74.632"/>
<path style="fill:#F6E088;" d="M440.955,123.866H71.045c-18.368,0-33.258,14.89-33.258,33.258v77.45
	c0-20.085,16.283-36.367,36.368-36.367c20.086,0,36.369,16.282,36.369,36.367v60.47c0,20.086,16.283,36.368,36.369,36.368
	s36.369-16.282,36.369-36.368v-60.47c0-20.085,16.282-36.367,36.367-36.367c20.087,0,36.369,16.282,36.369,36.367v34.883
	c0,20.087,16.283,36.368,36.369,36.368c20.085,0,36.368-16.281,36.368-36.368v-9.297c0-20.086,16.283-36.368,36.368-36.368
	c20.086,0,36.369,16.282,36.369,36.368v34.883c0,20.086,16.283,36.368,36.369,36.368c20.085,0,36.368-16.282,36.368-36.368V157.125
	C474.213,138.756,459.323,123.866,440.955,123.866z"/>
<path style="fill:#CF691C;" d="M255.997,12.644c0,0,27.93,13.359,27.93,41.286c0,17.774-12.505,32.182-27.93,32.182
	c-15.426,0-27.931-14.408-27.931-32.182C228.066,26.004,255.997,12.644,255.997,12.644z"/>
<g>
	<path style="fill:#491E17;" d="M112.418,461.027H45.62V388.19c10.685,1.449,17.009,5.878,24.12,10.868
		c9.493,6.662,20.253,14.212,40.955,14.212c20.701,0,31.461-7.55,40.954-14.212c8.693-6.102,16.202-11.371,31.955-11.371
		s23.261,5.269,31.956,11.371c9.493,6.662,20.253,14.212,40.955,14.212c20.702,0,31.463-7.55,40.955-14.213
		c8.693-6.101,16.202-11.37,31.954-11.37c15.755,0,23.265,5.269,31.959,11.371c9.494,6.662,20.256,14.212,40.96,14.212
		c20.764,0,31.261-7.584,40.523-14.276c6.859-4.955,12.958-9.355,23.512-10.803v72.836H133.312v15.669h348.736V295.043V157.125
		c0-22.659-18.434-41.093-41.093-41.093H263.832V92.969c15.964-4.009,27.93-19.983,27.93-39.037
		c0-32.492-31.062-47.722-32.385-48.354l-3.38-1.617l-3.38,1.617c-1.322,0.633-32.385,15.862-32.385,48.354
		c0,19.054,11.967,35.029,27.931,39.037v23.063H71.045c-22.659,0-41.093,18.434-41.093,41.093v77.45v242.122h82.467v-15.669H112.418
		z M235.901,53.931c0-17.466,13.562-28.15,20.085-32.278c6.494,4.137,20.108,14.884,20.108,32.278
		c0,13.425-9.015,24.348-20.095,24.348C244.916,78.279,235.901,67.356,235.901,53.931z M45.62,157.125
		c0-14.019,11.405-25.424,25.424-25.424h369.909c14.019,0,25.424,11.405,25.424,25.424v137.918c0,15.734-12.8,28.534-28.534,28.534
		c-15.735,0-28.535-12.8-28.535-28.534V260.16c0-24.373-19.83-44.203-44.204-44.203c-24.374,0-44.203,19.829-44.203,44.203v9.297
		c0,15.734-12.801,28.534-28.534,28.534c-15.735,0-28.535-12.8-28.535-28.534v-34.883c0-24.373-19.83-44.202-44.204-44.202
		s-44.202,19.829-44.202,44.202v60.47c0,15.734-12.801,28.534-28.535,28.534s-28.535-12.8-28.535-28.534v-60.47
		c0-24.373-19.83-44.202-44.204-44.202c-10.866,0-20.829,3.941-28.534,10.468v-43.716H45.62z M74.155,206.041
		c15.734,0,28.535,12.8,28.535,28.533v60.47c0,24.373,19.83,44.203,44.204,44.203s44.204-19.83,44.204-44.203v-60.47
		c0-15.733,12.8-28.533,28.533-28.533c15.735,0,28.535,12.8,28.535,28.533v34.883c0,24.373,19.83,44.203,44.204,44.203
		s44.203-19.829,44.203-44.203v-9.297c0-15.734,12.8-28.534,28.534-28.534c15.735,0,28.535,12.8,28.535,28.534v34.883
		c0,24.373,19.83,44.203,44.204,44.203c10.869,0,20.828-3.95,28.534-10.481v43.648c-15.725,1.633-24.672,8.089-32.688,13.881
		c-8.399,6.067-15.651,11.307-31.347,11.307c-15.756,0-23.265-5.269-31.959-11.371c-9.495-6.662-20.256-14.213-40.959-14.213
		c-20.702,0-31.462,7.552-40.955,14.213c-8.693,6.102-16.202,11.371-31.955,11.371s-23.26-5.269-31.955-11.37
		c-9.493-6.663-20.254-14.214-40.956-14.214s-31.463,7.552-40.956,14.214c-8.693,6.101-16.201,11.37-31.953,11.37
		c-15.753,0-23.261-5.269-31.955-11.37c-8.214-5.765-17.39-12.185-33.121-13.814V234.574
		C45.62,218.84,58.421,206.041,74.155,206.041z"/>
	<rect y="492.368" style="fill:#491E17;" width="511.997" height="15.669"/>
</g>
</svg>